<?xml version="1.0" encoding="UTF-8"?> <svg xmlns="http://www.w3.org/2000/svg" xmlns:xlink="http://www.w3.org/1999/xlink" width="500" zoomAndPan="magnify" viewBox="0 0 375 374.999991" height="500" preserveAspectRatio="xMidYMid meet" version="1.0"><defs><g></g></defs><rect x="-37.5" width="450" fill="#ffffff" y="-37.499999" height="449.999989" fill-opacity="1"></rect><rect x="-37.5" width="450" fill="#59738d" y="-37.499999" height="449.999989" fill-opacity="1"></rect><g fill="#faf6f5" fill-opacity="1"><g transform="translate(113.63096, 180.851472)"><g><path d="M 69.757812 -39.660156 L 46.4375 -39.660156 L 46.4375 -28.601562 L 58.097656 -28.601562 L 58.097656 -18.535156 C 53.8125 -13.652344 47.632812 -10.664062 40.660156 -10.664062 C 27.804688 -10.664062 17.4375 -17.835938 17.4375 -34.878906 C 17.4375 -50.125 27.804688 -59.09375 40.660156 -59.09375 C 47.035156 -59.09375 52.914062 -56.503906 57.101562 -52.316406 L 65.273438 -60.488281 C 58.996094 -66.867188 50.324219 -70.753906 40.660156 -70.753906 C 21.425781 -70.753906 5.78125 -55.605469 5.78125 -34.878906 C 5.78125 -12.058594 20.429688 0.996094 39.164062 0.996094 C 47.433594 0.996094 53.3125 -0.996094 58.996094 -6.277344 L 59.59375 0.300781 L 69.757812 0.300781 Z M 69.757812 -39.660156 "></path></g></g></g><g fill="#faf6f5" fill-opacity="1"><g transform="translate(186.670095, 180.851472)"><g><path d="M 40.058594 -8.070312 L 43.148438 0 L 55.707031 0 L 27.804688 -71.75 L 0 0 L 12.554688 0 L 15.546875 -8.070312 Z M 19.332031 -18.136719 L 27.804688 -42.351562 L 36.273438 -18.136719 Z M 19.332031 -18.136719 "></path></g></g></g><g fill="#faf6f5" fill-opacity="1"><g transform="translate(121.330178, 260.351467)"><g><path d="M 19.53125 -11.660156 L 19.53125 -69.757812 L 7.871094 -69.757812 L 7.871094 0 L 45.34375 0 L 45.34375 -11.660156 Z M 19.53125 -11.660156 "></path></g></g></g><g fill="#faf6f5" fill-opacity="1"><g transform="translate(167.265987, 260.351467)"><g><path d="M 26.605469 -34.878906 L 1.695312 0 L 15.945312 0 L 33.78125 -24.914062 L 51.519531 0 L 65.769531 0 L 40.859375 -34.878906 L 65.769531 -69.757812 L 51.519531 -69.757812 L 33.78125 -44.84375 L 15.945312 -69.757812 L 1.695312 -69.757812 Z M 26.605469 -34.878906 "></path></g></g></g><g fill="#faf6f5" fill-opacity="1"><g transform="translate(247.380223, 150.75456)"><g><path d="M 6.984375 3.671875 L 6.984375 6.421875 L 3 6.421875 C 1.988281 6.421875 1.210938 6.171875 0.671875 5.671875 C 0.128906 5.179688 -0.140625 4.453125 -0.140625 3.484375 C -0.140625 2.523438 0.128906 1.796875 0.671875 1.296875 C 1.210938 0.796875 1.988281 0.546875 3 0.546875 L 9.515625 0.546875 C 10.523438 0.546875 11.300781 0.796875 11.84375 1.296875 C 12.394531 1.796875 12.671875 2.523438 12.671875 3.484375 C 12.671875 4.453125 12.394531 5.179688 11.84375 5.671875 C 11.300781 6.171875 10.523438 6.421875 9.515625 6.421875 L 8.296875 6.421875 L 8.296875 4.5625 L 9.640625 4.5625 C 10.097656 4.5625 10.414062 4.46875 10.59375 4.28125 C 10.78125 4.09375 10.875 3.847656 10.875 3.546875 C 10.875 3.234375 10.78125 2.984375 10.59375 2.796875 C 10.414062 2.609375 10.097656 2.515625 9.640625 2.515625 L 2.875 2.515625 C 2.425781 2.515625 2.109375 2.609375 1.921875 2.796875 C 1.742188 2.984375 1.65625 3.234375 1.65625 3.546875 C 1.65625 3.847656 1.742188 4.09375 1.921875 4.28125 C 2.109375 4.46875 2.425781 4.5625 2.875 4.5625 L 5.1875 4.5625 L 5.1875 3.671875 Z M 6.984375 3.671875 "></path></g></g></g><g fill="#faf6f5" fill-opacity="1"><g transform="translate(247.380223, 158.390862)"><g><path d="M 0 7.078125 L 0 5.09375 L 2.265625 4.765625 L 2.265625 2.34375 L 0 2 L 0 0.203125 L 12.53125 2.203125 L 12.53125 5.078125 Z M 3.96875 2.59375 L 3.96875 4.484375 L 10.3125 3.546875 Z M 3.96875 2.59375 "></path></g></g></g><g fill="#faf6f5" fill-opacity="1"><g transform="translate(247.380223, 166.331165)"><g><path d="M 12.53125 0.71875 L 12.53125 2.6875 L 1.796875 2.6875 L 1.796875 5.921875 L 0 5.921875 L 0 0.71875 Z M 12.53125 0.71875 "></path></g></g></g><g fill="#faf6f5" fill-opacity="1"><g transform="translate(247.380223, 173.091205)"><g><path d="M 6.984375 3.671875 L 6.984375 6.421875 L 3 6.421875 C 1.988281 6.421875 1.210938 6.171875 0.671875 5.671875 C 0.128906 5.179688 -0.140625 4.453125 -0.140625 3.484375 C -0.140625 2.523438 0.128906 1.796875 0.671875 1.296875 C 1.210938 0.796875 1.988281 0.546875 3 0.546875 L 9.515625 0.546875 C 10.523438 0.546875 11.300781 0.796875 11.84375 1.296875 C 12.394531 1.796875 12.671875 2.523438 12.671875 3.484375 C 12.671875 4.453125 12.394531 5.179688 11.84375 5.671875 C 11.300781 6.171875 10.523438 6.421875 9.515625 6.421875 L 8.296875 6.421875 L 8.296875 4.5625 L 9.640625 4.5625 C 10.097656 4.5625 10.414062 4.46875 10.59375 4.28125 C 10.78125 4.09375 10.875 3.847656 10.875 3.546875 C 10.875 3.234375 10.78125 2.984375 10.59375 2.796875 C 10.414062 2.609375 10.097656 2.515625 9.640625 2.515625 L 2.875 2.515625 C 2.425781 2.515625 2.109375 2.609375 1.921875 2.796875 C 1.742188 2.984375 1.65625 3.234375 1.65625 3.546875 C 1.65625 3.847656 1.742188 4.09375 1.921875 4.28125 C 2.109375 4.46875 2.425781 4.5625 2.875 4.5625 L 5.1875 4.5625 L 5.1875 3.671875 Z M 6.984375 3.671875 "></path></g></g></g><g fill="#faf6f5" fill-opacity="1"><g transform="translate(247.380223, 180.727507)"><g><path d="M 0 7.078125 L 0 5.09375 L 2.265625 4.765625 L 2.265625 2.34375 L 0 2 L 0 0.203125 L 12.53125 2.203125 L 12.53125 5.078125 Z M 3.96875 2.59375 L 3.96875 4.484375 L 10.3125 3.546875 Z M 3.96875 2.59375 "></path></g></g></g><g fill="#faf6f5" fill-opacity="1"><g transform="translate(247.380223, 188.667809)"><g><path d="M 3.625 4.890625 L 12.53125 6.21875 L 12.53125 8.96875 L 0 8.96875 L 0 7.109375 L 8.984375 7.109375 L 0 5.75 L 0 3.875 L 8.859375 2.421875 L 0 2.421875 L 0 0.703125 L 12.53125 0.703125 L 12.53125 3.4375 Z M 3.625 4.890625 "></path></g></g></g><g fill="#faf6f5" fill-opacity="1"><g transform="translate(247.380223, 199.004416)"><g><path d="M 7.25 2.6875 L 7.25 5.390625 L 5.453125 5.390625 L 5.453125 2.6875 L 1.796875 2.6875 L 1.796875 6.078125 L 0 6.078125 L 0 0.71875 L 12.53125 0.71875 L 12.53125 6.078125 L 10.734375 6.078125 L 10.734375 2.6875 Z M 7.25 2.6875 "></path></g></g></g><g fill="#faf6f5" fill-opacity="1"><g transform="translate(247.380223, 206.247295)"><g><path d="M 12.503906 5.992188 C 13.113281 5.167969 13.878906 3.523438 14.328125 2.234375 L 13.398438 1.574219 C 12.914062 2.863281 12.09375 4.488281 11.464844 5.292969 Z M 10.429688 6.101562 C 9.820312 4.167969 9.210938 2.234375 8.855469 0.949219 L 7.621094 1.324219 C 8.085938 2.753906 8.691406 4.578125 9.265625 6.296875 Z M 1.804688 14.773438 L 6.636719 14.773438 L 6.636719 3.308594 L 1.679688 3.308594 L 1.679688 4.613281 L 5.417969 4.613281 L 5.417969 13.433594 L 1.804688 13.433594 Z M 4.902344 8.480469 C 1.949219 7.941406 0.375 6.601562 -0.320312 0.949219 C -0.589844 1.164062 -1.109375 1.449219 -1.414062 1.539062 C -0.574219 7.53125 1.339844 9.175781 4.902344 9.765625 Z M 1.378906 9.230469 C 0.644531 11.449219 -0.519531 14.398438 -1.304688 15.882812 L -0.214844 16.671875 C 0.574219 15.113281 1.664062 12.144531 2.34375 9.964844 Z M 12.269531 14.738281 C 11.699219 14.453125 11.109375 14.183594 10.695312 13.917969 L 10.355469 15.078125 C 11.054688 15.507812 12.128906 16.0625 13.113281 16.511719 L 13.378906 15.542969 L 13.328125 15.328125 L 13.328125 9.285156 C 13.792969 9.535156 14.257812 9.75 14.722656 9.925781 L 14.898438 8.65625 C 13.667969 8.210938 12.164062 7.28125 11.054688 5.847656 C 10.894531 6.136719 10.535156 6.566406 10.230469 6.78125 C 10.859375 7.53125 11.554688 8.140625 12.269531 8.640625 L 12.269531 10.75 C 10.429688 10.230469 8.800781 9.015625 7.941406 5.847656 C 7.710938 6.101562 7.261719 6.441406 6.976562 6.566406 C 7.710938 9.03125 8.871094 10.429688 10.320312 11.269531 C 8.800781 12.394531 7.65625 14.132812 7.101562 16.117188 C 7.421875 16.296875 7.90625 16.636719 8.140625 16.921875 C 8.621094 14.6875 9.820312 12.773438 11.359375 11.789062 C 11.664062 11.894531 11.949219 12.003906 12.269531 12.09375 Z M 12.269531 14.738281 "></path></g></g></g><g fill="#faf6f5" fill-opacity="1"><g transform="translate(247.380223, 224.792118)"><g><path d="M 12.859375 5.367188 C 13.378906 4.6875 14.203125 3.34375 14.757812 2.378906 L 13.84375 1.609375 C 13.21875 2.574219 12.34375 3.898438 11.804688 4.578125 Z M 8.210938 4.527344 C 8.691406 3.828125 9.445312 2.46875 9.980469 1.503906 L 9.050781 0.734375 C 8.496094 1.734375 7.65625 3.058594 7.136719 3.738281 Z M 5.347656 3.828125 C 3.34375 3.003906 1 1.894531 -0.375 1.109375 L -1.109375 2.289062 C 0.535156 3.128906 2.738281 4.132812 4.613281 4.867188 Z M 12.878906 7.371094 L 12.878906 16.941406 L 14.09375 16.941406 L 14.09375 6.0625 L 9.210938 6.0625 C 6.277344 6.0625 2.253906 5.886719 -0.609375 3.863281 C -0.734375 4.167969 -1.074219 4.738281 -1.304688 4.953125 C 1.679688 7.066406 6.101562 7.371094 9.210938 7.371094 Z M 3.683594 9.015625 C 2.503906 8.496094 1.234375 7.710938 0.375 6.886719 C 0.195312 7.207031 -0.105469 7.710938 -0.304688 7.960938 C 0.625 8.730469 2.058594 9.625 3.363281 10.214844 Z M 7.28125 9.585938 L 7.28125 15.027344 L 5.707031 15.027344 L 5.707031 9.585938 Z M 9.800781 9.585938 L 9.800781 15.027344 L 8.246094 15.027344 L 8.246094 9.585938 Z M 4.6875 16.257812 L 10.820312 16.257812 L 10.820312 12.359375 C 11.285156 12.59375 11.804688 12.84375 12.324219 13.09375 L 12.628906 11.609375 C 12.128906 11.5 11.394531 11.285156 10.820312 11.089844 L 10.820312 8.390625 L 4.6875 8.390625 L 4.6875 11.589844 L 0.0351562 11.589844 C -0.160156 11.589844 -0.214844 11.519531 -0.234375 11.285156 C -0.234375 11.089844 -0.25 10.304688 -0.214844 9.445312 C -0.554688 9.605469 -1.019531 9.765625 -1.359375 9.820312 C -1.378906 11.019531 -1.378906 11.769531 -1.179688 12.253906 C -0.984375 12.753906 -0.644531 12.859375 0.0195312 12.859375 L 4.6875 12.859375 Z M 3.378906 14.058594 C 2.253906 14.757812 0.769531 15.632812 -0.125 16.027344 L 0.410156 17.242188 C 1.269531 16.796875 2.738281 15.902344 3.828125 15.203125 Z M 3.378906 14.058594 "></path></g></g></g><g fill="#faf6f5" fill-opacity="1"><g transform="translate(247.380223, 243.336936)"><g><path d="M 12.21875 5.582031 C 12.949219 5.367188 14.042969 4.847656 14.863281 4.3125 L 14.523438 3.203125 C 13.683594 3.667969 12.539062 4.167969 11.804688 4.382812 Z M 2.863281 5.867188 C 4.738281 6.332031 7.460938 6.816406 9.550781 7.171875 L 9.785156 5.921875 C 7.621094 5.6875 4.488281 5.222656 2.59375 4.757812 C 2.234375 3.292969 1.949219 1.933594 1.71875 0.894531 L 0.410156 1.214844 C 0.875 3.078125 1.503906 5.5625 2.109375 7.925781 L 3.328125 7.800781 Z M 9.375 1.804688 C 7.351562 2.21875 4.738281 2.59375 2.988281 2.664062 L 3.203125 3.792969 C 4.953125 3.683594 7.53125 3.292969 9.570312 2.878906 Z M 10.394531 1.109375 L 10.394531 8.011719 L 11.625 8.011719 L 11.625 1.109375 Z M 0.734375 15.007812 L 0.734375 9.640625 L 5.222656 9.640625 L 5.222656 15.007812 Z M 10 17.101562 L 11.269531 17.101562 L 11.269531 12.59375 L 14.972656 12.59375 L 14.972656 11.25 L 6.476562 11.25 L 6.476562 8.351562 L -1.359375 8.351562 L -1.359375 9.640625 L -0.519531 9.640625 L -0.519531 15.007812 L -1.289062 15.007812 L -1.289062 16.347656 L 6.476562 16.347656 L 6.476562 12.59375 L 10 12.59375 Z M 10 17.101562 "></path></g></g></g></svg> 